<?xml version="1.0" encoding="UTF-8" standalone="no"?> <svg width="64" height="64" viewBox="0 0 64 64" fill="none" xmlns="http://www.w3.org/2000/svg">
<path d="M61 54H42.651L39.9 46H61C61.2652 46 61.5196 45.8946 61.7071 45.7071C61.8946 45.5196 62 45.2652 62 45C62 44.7348 61.8946 44.4804 61.7071 44.2929C61.5196 44.1054 61.2652 44 61 44H56V29.872C56 29.6068 55.8946 29.3524 55.7071 29.1649C55.5196 28.9774 55.2652 28.872 55 28.872C54.7348 28.872 54.4804 28.9774 54.2929 29.1649C54.1054 29.3524 54 29.6068 54 29.872V40H41C40.7348 40 40.4804 40.1054 40.2929 40.2929C40.1054 40.4804 40 40.7348 40 41C40 41.2652 40.1054 41.5196 40.2929 41.7071C40.4804 41.8946 40.7348 42 41 42H54V44H38V32C38 31.7348 37.8946 31.4804 37.7071 31.2929C37.5196 31.1054 37.2652 31 37 31H36V28H47.789C52.6892 28.0049 57.4805 26.5542 61.555 23.832C61.7067 23.7309 61.8279 23.5903 61.9055 23.4253C61.983 23.2603 62.014 23.0772 61.9951 22.8959C61.9761 22.7146 61.908 22.5419 61.798 22.3965C61.688 22.2511 61.5403 22.1385 61.371 22.071L60.655 21.786C55.2619 19.6219 50.4995 16.1364 46.806 11.65C47.7446 11.2865 48.5516 10.6481 49.1214 9.81847C49.6913 8.98882 49.9975 8.0065 50 7C50 6.73478 49.8946 6.48043 49.7071 6.29289C49.5196 6.10536 49.2652 6 49 6C48.7348 6 48.4804 6.10536 48.2929 6.29289C48.1054 6.48043 48 6.73478 48 7C48 7.79565 47.6839 8.55871 47.1213 9.12132C46.5587 9.68393 45.7957 10 45 10H35V8C34.9974 7.38174 34.8039 6.77937 34.4459 6.2753C34.0879 5.77123 33.5829 5.39008 33 5.184V3C33 2.73478 32.8946 2.48043 32.7071 2.29289C32.5196 2.10536 32.2652 2 32 2C31.7348 2 31.4804 2.10536 31.2929 2.29289C31.1054 2.48043 31 2.73478 31 3V5.184C30.4171 5.39008 29.9121 5.77123 29.5541 6.2753C29.1961 6.77937 29.0026 7.38174 29 8V10H20C19.2044 10 18.4413 9.68393 17.8787 9.12132C17.3161 8.55871 17 7.79565 17 7C17 6.73478 16.8946 6.48043 16.7071 6.29289C16.5196 6.10536 16.2652 6 16 6C15.7348 6 15.4804 6.10536 15.2929 6.29289C15.1054 6.48043 15 6.73478 15 7C15.0028 7.87002 15.2333 8.72416 15.6685 9.47748C16.1038 10.2308 16.7287 10.8571 17.481 11.294C13.7506 15.9499 8.88103 19.5636 3.34401 21.785L2.62801 22.071C2.45873 22.1387 2.31117 22.2513 2.20128 22.3967C2.09139 22.5422 2.02334 22.7149 2.0045 22.8962C1.98566 23.0775 2.01674 23.2605 2.09438 23.4255C2.17202 23.5904 2.29326 23.731 2.44501 23.832C4.17416 24.9796 6.04038 25.9058 8.00001 26.589V44H3.00001C2.73479 44 2.48044 44.1054 2.2929 44.2929C2.10536 44.4804 2.00001 44.7348 2.00001 45C2.00001 45.2652 2.10536 45.5196 2.2929 45.7071C2.48044 45.8946 2.73479 46 3.00001 46H21.5C21.7652 46 22.0196 45.8946 22.2071 45.7071C22.3946 45.5196 22.5 45.2652 22.5 45C22.5 44.7348 22.3946 44.4804 22.2071 44.2929C22.0196 44.1054 21.7652 44 21.5 44H10V42H26V44H25.5C25.2917 43.9999 25.0885 44.065 24.9189 44.186C24.7493 44.307 24.6217 44.478 24.554 44.675L21.349 54H3.00001C2.73479 54 2.48044 54.1054 2.2929 54.2929C2.10536 54.4804 2.00001 54.7348 2.00001 55C2.00001 55.2652 2.10536 55.5196 2.2929 55.7071C2.48044 55.8946 2.73479 56 3.00001 56H20.661L19.054 60.675C19.0113 60.7992 18.9935 60.9306 19.0016 61.0618C19.0098 61.1929 19.0436 61.3211 19.1013 61.4391C19.1589 61.5571 19.2393 61.6626 19.3377 61.7496C19.4362 61.8366 19.5508 61.9033 19.675 61.946C19.7992 61.9887 19.9307 62.0065 20.0618 61.9984C20.1929 61.9903 20.3211 61.9564 20.4391 61.8987C20.5571 61.8411 20.6627 61.7607 20.7496 61.6623C20.8366 61.5638 20.9033 61.4492 20.946 61.325L26.214 46H27.257L24.023 60.786C23.9663 61.0451 24.0148 61.3162 24.1578 61.5395C24.3009 61.7629 24.5269 61.9202 24.786 61.977C25.0451 62.0338 25.3162 61.9853 25.5395 61.8422C25.7629 61.6991 25.9202 61.4731 25.977 61.214L26.68 58H37.32L38.02 61.214C38.0689 61.4373 38.1929 61.6371 38.3712 61.7801C38.5495 61.9231 38.7714 62.0007 39 62C39.0723 62.0002 39.1444 61.9925 39.215 61.977C39.3433 61.9489 39.4648 61.8958 39.5726 61.8208C39.6804 61.7457 39.7724 61.6502 39.8432 61.5396C39.9141 61.429 39.9625 61.3055 39.9856 61.1762C40.0087 61.0469 40.0061 60.9143 39.978 60.786L36.742 46H37.786L43.055 61.325C43.094 61.4536 43.1586 61.5731 43.2448 61.6762C43.331 61.7793 43.4371 61.864 43.5568 61.9252C43.6765 61.9863 43.8073 62.0228 43.9414 62.0322C44.0754 62.0417 44.2101 62.0241 44.3372 61.9804C44.4643 61.9367 44.5813 61.8678 44.6812 61.7778C44.781 61.6879 44.8618 61.5787 44.9185 61.4569C44.9752 61.335 45.0068 61.203 45.0114 61.0686C45.0159 60.9343 44.9934 60.8004 44.945 60.675L43.338 56H61C61.2652 56 61.5196 55.8946 61.7071 55.7071C61.8946 55.5196 62 55.2652 62 55C62 54.7348 61.8946 54.4804 61.7071 54.2929C61.5196 54.1054 61.2652 54 61 54ZM31 8C31 7.73478 31.1054 7.48043 31.2929 7.29289C31.4804 7.10536 31.7348 7 32 7C32.2652 7 32.5196 7.10536 32.7071 7.29289C32.8946 7.48043 33 7.73478 33 8V10H31V8ZM34 31H30V28H34V31ZM23.453 13.936C23.3231 13.9161 23.1906 13.922 23.063 13.9534C22.9354 13.9847 22.8152 14.0409 22.7093 14.1187C22.6035 14.1966 22.514 14.2945 22.446 14.4069C22.378 14.5194 22.3328 14.6441 22.313 14.774C21.7251 18.6029 20.7563 22.3636 19.421 26H16.211C15.517 26 14.828 25.958 14.142 25.9C17.0582 21.6521 19.2624 16.9572 20.668 12H28.016C27.84 16.792 27.458 21.49 26.875 26H21.539C22.7954 22.4522 23.7167 18.7946 24.291 15.075C24.3309 14.8128 24.265 14.5456 24.1079 14.332C23.9507 14.1184 23.7152 13.9759 23.453 13.936ZM39.33 12C39.8076 16.7742 40.854 21.4742 42.447 26H37.122C36.652 22.363 36.304 18.581 36.098 14.732C36.0812 14.468 35.9615 14.2212 35.7646 14.0447C35.5676 13.8681 35.3092 13.7759 35.045 13.788C34.7802 13.8022 34.5319 13.921 34.3546 14.1183C34.1774 14.3156 34.0858 14.5752 34.1 14.84C34.3 18.648 34.647 22.391 35.107 26H28.889C29.465 21.485 29.844 16.788 30.018 12H39.33ZM44.572 26C42.9198 21.4849 41.8342 16.7824 41.34 12H43.34C44.8162 16.9958 47.1732 21.6875 50.3 25.854C49.4663 25.9482 48.628 25.9969 47.789 26H44.572ZM58.792 23.172C56.836 24.2478 54.732 25.0292 52.548 25.491C49.7841 21.9947 47.5978 18.0785 46.072 13.891C49.5895 17.8697 53.9296 21.0365 58.792 23.172V23.172ZM18 13.809C16.5587 18.0151 14.5053 21.9857 11.906 25.593C9.55906 25.1441 7.29783 24.327 5.20601 23.172C10.1031 21.0224 14.47 17.8266 18 13.809V13.809ZM27 35C26.7348 35 26.4804 35.1054 26.2929 35.2929C26.1054 35.4804 26 35.7348 26 36V40H10V27.2C12.0282 27.728 14.1152 27.9968 16.211 28H28V31H27C26.7348 31 26.4804 31.1054 26.2929 31.2929C26.1054 31.4804 26 31.7348 26 32C26 32.2652 26.1054 32.5196 26.2929 32.7071C26.4804 32.8946 26.7348 33 27 33H36V44H28V36C28 35.7348 27.8946 35.4804 27.7071 35.2929C27.5196 35.1054 27.2652 35 27 35ZM36.008 52H27.992L28.43 50H35.57L36.008 52ZM27.117 56L27.555 54H36.445L36.883 56H27.117ZM35.133 48H28.867L29.305 46H34.7L35.133 48Z" fill="black"/>
<path d="M42 34C42 34.7911 42.2346 35.5645 42.6741 36.2223C43.1136 36.8801 43.7384 37.3928 44.4693 37.6955C45.2002 37.9983 46.0044 38.0775 46.7804 37.9231C47.5563 37.7688 48.269 37.3878 48.8284 36.8284C49.3878 36.269 49.7688 35.5563 49.9231 34.7804C50.0775 34.0044 49.9983 33.2002 49.6955 32.4693C49.3928 31.7384 48.8801 31.1136 48.2223 30.6741C47.5645 30.2346 46.7911 30 46 30C44.9391 30 43.9217 30.4214 43.1716 31.1716C42.4214 31.9217 42 32.9391 42 34ZM48 34C48 34.3956 47.8827 34.7822 47.6629 35.1111C47.4432 35.44 47.1308 35.6964 46.7654 35.8478C46.3999 35.9991 45.9978 36.0387 45.6098 35.9616C45.2219 35.8844 44.8655 35.6939 44.5858 35.4142C44.3061 35.1345 44.1156 34.7781 44.0384 34.3902C43.9613 34.0022 44.0009 33.6001 44.1522 33.2346C44.3036 32.8692 44.56 32.5568 44.8889 32.3371C45.2178 32.1173 45.6044 32 46 32C46.5304 32 47.0391 32.2107 47.4142 32.5858C47.7893 32.9609 48 33.4696 48 34Z" fill="black"/>
<path d="M18 30C16.9391 30 15.9217 30.4214 15.1716 31.1716C14.4214 31.9217 14 32.9391 14 34C14 34.2652 14.1054 34.5196 14.2929 34.7071C14.4804 34.8946 14.7348 35 15 35C15.2652 35 15.5196 34.8946 15.7071 34.7071C15.8946 34.5196 16 34.2652 16 34C16 33.6044 16.1173 33.2178 16.3371 32.8889C16.5568 32.56 16.8692 32.3036 17.2346 32.1522C17.6001 32.0009 18.0022 31.9613 18.3902 32.0384C18.7781 32.1156 19.1345 32.3061 19.4142 32.5858C19.6939 32.8655 19.8844 33.2219 19.9616 33.6098C20.0387 33.9978 19.9991 34.3999 19.8478 34.7654C19.6964 35.1308 19.44 35.4432 19.1111 35.6629C18.7822 35.8827 18.3956 36 18 36C17.7348 36 17.4804 36.1054 17.2929 36.2929C17.1054 36.4804 17 36.7348 17 37C17 37.2652 17.1054 37.5196 17.2929 37.7071C17.4804 37.8946 17.7348 38 18 38C19.0609 38 20.0783 37.5786 20.8284 36.8284C21.5786 36.0783 22 35.0609 22 34C22 32.9391 21.5786 31.9217 20.8284 31.1716C20.0783 30.4214 19.0609 30 18 30Z" fill="black"/>
</svg>
