<?xml version="1.0" encoding="UTF-8"?>
<!DOCTYPE svg PUBLIC "-//W3C//DTD SVG 1.1//EN" "http://www.w3.org/Graphics/SVG/1.1/DTD/svg11.dtd">
<!-- Creator: CorelDRAW -->
<svg xmlns="http://www.w3.org/2000/svg" xml:space="preserve" width="1.70666in" height="1.70666in" version="1.1" style="shape-rendering:geometricPrecision; text-rendering:geometricPrecision; image-rendering:optimizeQuality; fill-rule:evenodd; clip-rule:evenodd"
viewBox="0 0 1707 1707"
 xmlns:xlink="http://www.w3.org/1999/xlink">
 <defs>
  <style type="text/css">
   <![CDATA[
    .fil0 {fill:url(#id0)}
   ]]>
  </style>
  <linearGradient id="id0" gradientUnits="userSpaceOnUse" x1="84.4646" y1="853.331" x2="1622.07" y2="853.331">
   <stop offset="0" style="stop-opacity:1; stop-color:#336666"/>
   <stop offset="1" style="stop-opacity:1; stop-color:#003333"/>
  </linearGradient>
 </defs>
 <g id="Layer_x0020_1">
  <metadata id="CorelCorpID_0Corel-Layer"/>
  <path class="fil0" d="M1556 892l-132 -285 -132 285 264 0zm-173 -321l-1060 0c17,37 157,333 158,344 0,1 0,2 0,3 0,109 -89,198 -198,198 -113,0 -203,-97 -198,-199l2 -11 160 -344c-64,-37 -38,-136 36,-136l470 0 40 -204c-104,-61 -61,-222 60,-222 121,0 165,161 60,222l41 204 470 0c74,0 100,99 36,136l159 343c2,4 3,8 3,12 0,110 -89,199 -198,199 -109,0 -198,-89 -198,-197l2 -12 155 -336zm-1100 -93c-28,0 -28,42 0,42l1141 0c27,0 27,-42 0,-42l-1141 0zm523 -52l95 0 -37 -188c-7,1 -14,1 -21,0l-37 188zm47 -374c-88,0 -88,135 0,135 89,0 89,-135 0,-135zm494 1655l-987 0c-14,0 -26,-12 -26,-26l0 -219c0,-134 135,-244 300,-244l5 0 62 -49c-79,-51 -132,-140 -132,-241 0,-158 129,-287 288,-287 158,0 287,129 287,287 0,101 -52,190 -131,241l62 49c164,1 297,110 297,244l0 219c0,14 -11,26 -25,26zm-657 -463l163 131 168 -134 -58 -46c-68,28 -144,28 -212,0l-61 49zm-304 411l114 0 0 -110c0,-34 52,-34 52,0l0 110 598 0 0 -110c0,-34 52,-34 52,0l0 110 119 0 0 -193c0,-106 -112,-192 -248,-192l-6 0 -198 158c-9,7 -22,7 -32,0l-198 -158 -5 0c-137,0 -248,86 -248,192l0 193zm471 -962c-130,0 -236,105 -236,235 0,130 106,236 236,236 130,0 236,-106 236,-236 0,-130 -106,-235 -236,-235zm-706 199l264 0 -132 -285 -132 285zm-12 51c12,69 72,121 144,121 72,0 132,-52 144,-121l-288 0zm1141 0c12,69 72,121 144,121 72,0 132,-52 144,-121l-288 0z"/>
 </g>
</svg>
