<svg xmlns="http://www.w3.org/2000/svg" viewBox="0 0 223.63 223.63"><title>Self_confident</title><g id="Self_confident"><path d="M169.33,40.6a2.75,2.75,0,1,0-3.41,4.32,84.59,84.59,0,0,1,32.51,66.86,2.75,2.75,0,1,0,5.5,0A90.07,90.07,0,0,0,169.33,40.6Z" id="id_101"></path><path d="M28.4,111.78A84.61,84.61,0,0,1,60.9,44.92a2.75,2.75,0,1,0-3.4-4.32,90,90,0,0,0-34.6,71.18,2.75,2.75,0,0,0,5.5,0Z" id="id_102"></path><path d="M200.08,126a2.75,2.75,0,0,0-3.23,2.17A85.06,85.06,0,0,1,144.22,191l.74,5.59a90.59,90.59,0,0,0,57.29-67.37A2.74,2.74,0,0,0,200.08,126Z" id="id_103"></path><path d="M82.6,191A85.06,85.06,0,0,1,30,128.15a2.75,2.75,0,1,0-5.4,1,90.54,90.54,0,0,0,57.27,67.37Z" id="id_104"></path><path d="M119.43,196.55c-2,.14-4,.24-6,.24s-4-.1-6-.24l-.75,5.48q3.36.25,6.78.26t6.76-.26Z" id="id_105"></path><path d="M74.22,33.06a7.59,7.59,0,0,1,5.11,5.11,1.31,1.31,0,0,0,2.48,0,7.57,7.57,0,0,1,5.11-5.11,1.31,1.31,0,0,0,0-2.48,7.59,7.59,0,0,1-5.11-5.11,1.31,1.31,0,0,0-2.48,0,7.61,7.61,0,0,1-5.11,5.11A1.31,1.31,0,0,0,74.22,33.06Z" id="id_106"></path><path d="M140.23,33.06a7.55,7.55,0,0,1,5.11,5.11,1.32,1.32,0,0,0,2.49,0,7.55,7.55,0,0,1,5.11-5.11,1.32,1.32,0,0,0,0-2.48,7.57,7.57,0,0,1-5.11-5.11,1.32,1.32,0,0,0-2.49,0,7.57,7.57,0,0,1-5.11,5.11A1.32,1.32,0,0,0,140.23,33.06Z" id="id_107"></path><path d="M104.3,25.21a1.51,1.51,0,0,1,.55,1.69l-3.3,10.16a1.51,1.51,0,0,0,2.32,1.69l8.65-6.28a1.49,1.49,0,0,1,1.77,0l8.65,6.28a1.51,1.51,0,0,0,2.32-1.69L122,26.9a1.51,1.51,0,0,1,.55-1.69l8.65-6.45a1.62,1.62,0,0,0-.89-2.89H119.58a1.39,1.39,0,0,1-1.44-.88L114.84,4.9a1.51,1.51,0,0,0-2.87,0l-3.3,10a1.41,1.41,0,0,1-1.44.9H96.54a1.62,1.62,0,0,0-.89,2.89Z" id="id_108"></path><path d="M113.41,54.61a16.48,16.48,0,1,0,16.48,16.48A16.48,16.48,0,0,0,113.41,54.61Zm7.08,18.2a7.18,7.18,0,0,1-14.16.07,1.51,1.51,0,0,1,1.47-1.75l11.2-.06a1.46,1.46,0,0,1,1.14.53A1.52,1.52,0,0,1,120.49,72.81Z" id="id_109"></path><path d="M135.69,157.32l-.5-3.81-.05,0-3-20.18.06-.05-.53-3.8-1.8-13.21a.53.53,0,0,1,.9-.45l6.91,6.91a3.73,3.73,0,0,1,0,5.28l-.59.59,3,20.17,12.35-11.27a17.13,17.13,0,0,0,0-24.21l0,0-9.29-9.18a35.29,35.29,0,0,0-25-10.25h-9.51a35.27,35.27,0,0,0-25,10.25l-9.29,9.23h0a17.12,17.12,0,0,0,0,24.2l12.37,11.27,3-20.17-.6-.6a3.73,3.73,0,0,1,0-5.28L96,115.86a.53.53,0,0,1,.9.45l-2.32,17,0,.05-3,20.11,0,0-8.53,63.95a2.2,2.2,0,0,0,2.12,2.49h13A2.2,2.2,0,0,0,100.4,218l7.07-51.33a6.61,6.61,0,0,1,.83-2.43,6,6,0,0,1,10.2,0,6.78,6.78,0,0,1,.84,2.41L126.41,218a2.2,2.2,0,0,0,2.12,1.91h13.05a2.2,2.2,0,0,0,2.12-2.49Zm-16.6-30.06-5.45,3.83L108,127.26c-.17-.12-.37-.32-.32-.52l4.58-19.59a.56.56,0,0,0-.11-.41l-3.19-4.19c-.24-.33,0-.68.39-.68h8.18c.41,0,.64.35.4.68l-3.16,4.25a.43.43,0,0,0-.09.38l4.64,19.57A.47.47,0,0,1,119.09,127.26Z" id="id_110"></path></g></svg>