<?xml version="1.0" encoding="UTF-8" standalone="no"?> <svg xmlns="http://www.w3.org/2000/svg" viewBox="0 0 512 512"><g id="solid"><path d="M456.9,185.922a8,8,0,0,0-15.453,4.156,193.31,193.31,0,0,1-1.125,103.86,8,8,0,0,0,15.36,4.484,209.354,209.354,0,0,0,1.218-112.5Z"/><path d="M444.816,152.633A209.056,209.056,0,0,0,322.559,42.883a8,8,0,0,0-5.118,15.156A193,193,0,0,1,430.3,159.367,8,8,0,0,0,437.562,164a7.9,7.9,0,0,0,3.36-.742A8,8,0,0,0,444.816,152.633Z"/><path d="M232.945,49.367a195.5,195.5,0,0,1,53.782,1.078,7.865,7.865,0,0,0,1.285.1,8,8,0,0,0,1.261-15.9,211.445,211.445,0,0,0-58.218-1.171,8,8,0,0,0,1.89,15.89Z"/><path d="M144.008,82.281a7.953,7.953,0,0,0,4.476-1.375,191.3,191.3,0,0,1,46.075-22.867,8,8,0,1,0-5.118-15.156,206.8,206.8,0,0,0-49.925,24.773,8,8,0,0,0,4.492,14.625Z"/><path d="M57.8,211.867a7.522,7.522,0,0,0,1.437.133,8,8,0,0,0,7.864-6.57,192.009,192.009,0,0,1,38.242-84.469A8,8,0,1,0,92.8,111.039,208,208,0,0,0,51.359,202.57,8,8,0,0,0,57.8,211.867Z"/><path d="M64,240l.039-3.836A8.007,8.007,0,0,0,56.2,228h-.168a8,8,0,0,0-8,7.836Q48,237.91,48,240a207.923,207.923,0,0,0,9.523,62.4,8,8,0,1,0,15.266-4.8A191.957,191.957,0,0,1,64,240Z"/><path d="M400,240a143.738,143.738,0,0,1-7.578,46.219,8,8,0,0,0,15.156,5.14A159.725,159.725,0,0,0,416,240a8,8,0,0,0-16,0Z"/><path d="M382.312,141.781a8,8,0,0,0-12.625,9.828,142.51,142.51,0,0,1,26.25,54.282A8,8,0,0,0,403.7,212a7.865,7.865,0,0,0,1.9-.227,8,8,0,0,0,5.886-9.664A158.343,158.343,0,0,0,382.312,141.781Z"/><path d="M346.945,128.352a8,8,0,0,0,10.11-12.407A160.761,160.761,0,0,0,331.8,99.062a8,8,0,1,0-7.594,14.079A144.923,144.923,0,0,1,346.945,128.352Z"/><path d="M180.2,99.062A160.464,160.464,0,0,0,152.6,117.9a8,8,0,1,0,10.343,12.2A144.619,144.619,0,0,1,187.8,113.141,8,8,0,1,0,180.2,99.062Z"/><path d="M106.4,211.773A7.865,7.865,0,0,0,108.3,212a8,8,0,0,0,7.765-6.117,143.15,143.15,0,0,1,11.114-30.3,8,8,0,0,0-14.305-7.172,158.958,158.958,0,0,0-12.355,33.7A7.994,7.994,0,0,0,106.4,211.773Z"/><path d="M104,232a8,8,0,0,0-8,8,160.188,160.188,0,0,0,6.805,46.312,8,8,0,0,0,15.32-4.624A144.124,144.124,0,0,1,112,240,8,8,0,0,0,104,232Z"/><path d="M240,189.642V200h32V189.642a55.462,55.462,0,0,1-32,0Z"/><path d="M265.685,81.322c-1.176-.283-2.361-.525-3.559-.7-.877-.137-1.778-.192-2.673-.27a41.894,41.894,0,0,0-6.914,0c-.894.078-1.792.133-2.668.27-1.2.177-2.38.42-3.554.7a39.473,39.473,0,0,0-4.765,1.482c-.42.159-.861.262-1.275.436a39.643,39.643,0,0,0-4.684,2.546,45.684,45.684,0,0,0,40.82,0,39.6,39.6,0,0,0-4.673-2.539c-.451-.19-.931-.3-1.39-.476A39.68,39.68,0,0,0,265.685,81.322Z"/><path d="M256,176a40.047,40.047,0,0,0,40-40V120a39.684,39.684,0,0,0-7.367-22.986,60.412,60.412,0,0,1-65.266,0A39.684,39.684,0,0,0,216,120v16A40.047,40.047,0,0,0,256,176Zm-16-56h16a8,8,0,0,1,8,8v24a8,8,0,0,1-16,0V136h-8a8,8,0,0,1,0-16Z"/><path d="M184,285.945V241.727l-32.844,65.687a7.991,7.991,0,0,1-3.269,3.414L88.348,343.906a11.53,11.53,0,0,0,11.117,20.2l62.5-34.093Z"/><path d="M368.027,392.047l-224.043-.039h-.011a32,32,0,0,0,0,63.992H144v-9.391a23.8,23.8,0,0,1,16.045-22.564l-.842-.084a8,8,0,1,1,1.594-15.922l79.226,7.923,87.254-7.931a8,8,0,1,1,1.446,15.938L224,433.491V456H368.023a31.977,31.977,0,0,0,0-63.953Z"/><path d="M423.652,344.07l-59.539-33.078a7.991,7.991,0,0,1-3.269-3.414L328,241.891v44.218l22.035,44.071,62.5,34.086a11.527,11.527,0,0,0,11.117-20.2Z"/><path d="M216,328v48h80V328a8.058,8.058,0,0,1,.57-2.969L312,286.461V216H200v70.461l15.43,38.57A8.058,8.058,0,0,1,216,328Z"/><path d="M167.277,438.648a7.956,7.956,0,0,0-6.723,5.014,8.047,8.047,0,0,0-.554,2.947V456h48V434.945l-38.97,3.544Z"/></g></svg>